<svg xmlns="http://www.w3.org/2000/svg" version="1.1" xmlns:xlink="http://www.w3.org/1999/xlink" xmlns:svgjs="http://svgjs.dev/svgjs" width="1500" height="1500" viewBox="0 0 1500 1500"><g transform="matrix(1,0,0,1,-0.323615160350073,-0.3236151603499593)"><svg viewBox="0 0 343 343" data-background-color="#fffff5" preserveAspectRatio="xMidYMid meet" height="1500" width="1500" xmlns="http://www.w3.org/2000/svg" xmlns:xlink="http://www.w3.org/1999/xlink"><g id="tight-bounds" transform="matrix(1,0,0,1,0.0740000000000407,0.07400000000001228)"><svg viewBox="0 0 342.85155851775386 342.85155851775386" height="342.85155851775386" width="342.85155851775386"><g><svg></svg></g><g><svg viewBox="0 0 342.85155851775386 342.85155851775386" height="342.85155851775386" width="342.85155851775386"><g><path d="M0 171.426c0-94.676 76.75-171.426 171.426-171.426 94.676 0 171.426 76.75 171.426 171.426 0 94.676-76.75 171.426-171.426 171.426-94.676 0-171.426-76.75-171.426-171.426zM171.426 338.796c92.436 0 167.37-74.934 167.37-167.37 0-92.436-74.934-167.37-167.37-167.371-92.436 0-167.37 74.934-167.371 167.371 0 92.436 74.934 167.37 167.371 167.37z" data-fill-palette-color="tertiary" fill="#091627" stroke="transparent"></path><ellipse rx="164.56874808852186" ry="164.56874808852186" cx="171.42577925887693" cy="171.42577925887693" fill="#091627" stroke="transparent" stroke-width="0" fill-opacity="1" data-fill-palette-color="tertiary"></ellipse></g><g transform="matrix(1,0,0,1,64.84655864529837,112.55816331222813)"><svg viewBox="0 0 213.1584412271571 117.7352318932976" height="117.7352318932976" width="213.1584412271571"><g><svg viewBox="0 0 213.1584412271571 117.7352318932976" height="117.7352318932976" width="213.1584412271571"><g><svg viewBox="0 0 213.1584412271571 117.7352318932976" height="117.7352318932976" width="213.1584412271571"><g transform="matrix(1,0,0,1,0,72.76509661330664)"><svg viewBox="0 0 213.1584412271571 44.97013527999095" height="44.97013527999095" width="213.1584412271571"><g id="textblocktransform"><svg viewBox="0 0 213.1584412271571 44.97013527999095" height="44.97013527999095" width="213.1584412271571" id="textblock"><g><svg viewBox="0 0 213.1584412271571 44.97013527999095" height="44.97013527999095" width="213.1584412271571"><g transform="matrix(1,0,0,1,0,0)"><svg width="213.1584412271571" viewBox="0.05 -35.1 260.67 55" height="44.97013527999095" data-palette-color="#fffff5"><path d="M5.8 5.35L5.8 5.35Q3.9 5.35 2.05 4.05L2.05 4.05Q0.05 2.65 0.05 0.75L0.05 0.75Q0.05-1.6 2.5-2.8L2.5-2.8Q4.35-3.75 7-3.75L7-3.75Q8.4-3.75 9.95-3.5 11.5-3.25 13.25-2.75L13.25-2.75Q16.9-7.15 19.65-13.85L19.65-13.85Q19.3-15 19.13-15.88 18.95-16.75 18.95-17.4L18.95-17.4Q18.95-19.2 19.65-19.2L19.65-19.2Q20.45-19.2 21.05-17.6L21.05-17.6Q22.85-21.15 24.65-29.85L24.65-29.85Q14.25-29.5 8.7-23.8L8.7-23.8Q6.7-21.8 6.7-19.25L6.7-19.25Q6.7-17.25 8.05-15.6L8.05-15.6Q9.25-14.1 11.25-13.3L11.25-13.3Q11.55-13.2 12.05-13.05 12.55-12.9 13.2-12.75L13.2-12.75Q13.5-12.7 13.5-12.55L13.5-12.55Q13.5-12.3 13.15-12.3L13.15-12.3 13-12.35Q9.9-12.6 7.2-14.9L7.2-14.9Q4.25-17.4 4.25-20.4L4.25-20.4Q4.25-22.65 6.1-24.5L6.1-24.5Q9.25-27.75 14.85-29.3L14.85-29.3Q19.5-30.65 24.85-30.65L24.85-30.65Q24.95-31.7 25.18-32.83 25.4-33.95 25.7-35.1L25.7-35.1Q25.9-35.05 25.9-33.95L25.9-33.95Q25.9-33.3 25.8-32.48 25.7-31.65 25.5-30.65L25.5-30.65Q27.4-30.6 29.23-30.43 31.05-30.25 32.75-29.85L32.75-29.85Q35.8-32.65 38.95-32.65L38.95-32.65Q40.8-32.65 42.05-31.35 43.3-30.05 43.3-28.2L43.3-28.2Q43.3-27.5 43.05-27.5L43.05-27.5Q42.85-27.5 42.7-28.9L42.7-28.9Q42.4-31.15 39.45-31.15L39.45-31.15Q37.45-31.15 35.1-29.25L35.1-29.25Q38.2-28.3 40.4-26.55L40.4-26.55Q43.15-24.4 43.15-21.6L43.15-21.6Q43.15-18.2 39.25-16.25L39.25-16.25Q36.25-14.7 32.45-14.5L32.45-14.5Q42.8-9.7 42.8-3.15L42.8-3.15Q42.8-0.05 40.2 2.05L40.2 2.05Q37.65 4.15 34.45 4.15L34.45 4.15Q29.65 4.15 25.95 2.95L25.95 2.95 18.05-0.3Q16.65 1.35 15.33 2.48 14 3.6 12.7 4.15L12.7 4.15Q10.15 5.35 5.8 5.35ZM16.55-1.65L16.55-1.65Q18.6-3.9 21.2-9.45L21.2-9.45Q22.4-12.05 23.6-14.63 24.8-17.2 26.05-19.8L26.05-19.8Q27.65-23 29.18-25.35 30.7-27.7 32.15-29.25L32.15-29.25Q28.95-29.85 25.75-29.85L25.75-29.85 25.35-29.85Q24.3-25 21.9-18L21.9-18Q22.6-18.4 22.95-18.4L22.95-18.4Q23.35-18.4 23.35-17.9L23.35-17.9Q23.35-16.5 20.1-13.5L20.1-13.5Q18.7-10.3 17.13-7.58 15.55-4.85 13.7-2.6L13.7-2.6Q14.4-2.4 15.13-2.15 15.85-1.9 16.55-1.65ZM34.1 3.1L34.1 3.1Q40.85 3.1 40.85-1.5L40.85-1.5Q40.85-7.65 32.5-11.7L32.5-11.7Q32-11.9 31.25-12.23 30.5-12.55 29.5-13L29.5-13Q29.35-13.1 29.35-13.5L29.35-13.5Q29.35-14.9 30.8-15.2L30.8-15.2 31.8-15.2Q32.25-15.25 32.7-15.3 33.15-15.35 33.55-15.4L33.55-15.4Q36.5-15.95 38.35-17.4L38.35-17.4Q40.65-19.1 40.65-21.8L40.65-21.8Q40.65-24.25 38.7-26.2L38.7-26.2Q37-27.8 34.45-28.65L34.45-28.65Q31.45-25.9 28.7-20.3L28.7-20.3 24.05-10.1Q21.3-4.15 18.65-1L18.65-1 26.2 1.7Q30.45 3.1 34.1 3.1ZM6.15 4.2L6.15 4.2Q8.75 4.2 11.7 2.65L11.7 2.65Q14.75 1.1 16.1-0.95L16.1-0.95Q15.45-1.3 14.78-1.6 14.1-1.9 13.3-2.15L13.3-2.15Q10.35 1.4 8.2 1.4L8.2 1.4Q7.15 1.4 7.15 0.8L7.15 0.8Q7.15 0.55 7.45 0.55L7.45 0.55Q7.55 0.55 7.85 0.63 8.15 0.7 8.3 0.7L8.3 0.7Q10.2 0.7 12.85-2.25L12.85-2.25Q9.65-3.3 6.75-3.3L6.75-3.3Q4.7-3.3 3.05-2.6L3.05-2.6Q0.95-1.7 0.95 0.2L0.95 0.2Q0.95 2 2.7 3.15L2.7 3.15Q4.3 4.2 6.15 4.2ZM46.85-0.3L46.85-0.3Q46.3-0.3 46.3-0.6L46.3-0.6Q46.3-2.4 47.75-5.2L47.75-5.2Q49.55-8.7 49.85-9.75L49.85-9.75Q50.35-11.45 50.35-13.95L50.35-13.95Q50.2-13.45 49.7-12.5 49.2-11.55 48.35-10.1L48.35-10.1Q47.55-8.7 46.92-7.78 46.3-6.85 45.9-6.3L45.9-6.3Q45.9-6.25 45.8-6.25L45.8-6.25Q45.55-6.25 45.55-6.45L45.55-6.45 47.05-9Q48.3-11.1 49.05-12.88 49.8-14.65 50.15-16.05L50.15-16.05Q50.45-17.35 51.35-17.35L51.35-17.35Q52.25-17.35 52.25-15.25L52.25-15.25Q52.25-14.15 51.95-12.5 51.65-10.85 50.95-8.7L50.95-8.7 48.85-2.15Q50.7-3.55 52.42-5.35 54.15-7.15 55.55-9.5L55.55-9.5 55.85-10Q56.4-13.65 57.2-14.6L57.2-14.6Q57.4-14.95 58.1-14.95L58.1-14.95Q59.15-14.95 59.15-14.4L59.15-14.4Q59.15-12.9 58.2-11.65L58.2-11.65Q57.1-7.9 57.1-4.35L57.1-4.35Q57.1-1.95 58.6-1.95L58.6-1.95Q59.35-1.95 60.35-2.8L60.35-2.8Q61.35-3.65 61.3-3.65L61.3-3.65Q61.45-3.65 61.45-3.35L61.45-3.35 61.45-3.25Q59.75-0.85 57.65-0.85L57.65-0.85Q55.5-0.85 55.5-4.55L55.5-4.55Q55.5-5.45 55.57-6.5 55.65-7.55 55.75-8.8L55.75-8.8Q53.85-5.2 49.5-1.8L49.5-1.8Q49.25-1.6 48.8-1.25 48.35-0.9 47.8-0.5L47.8-0.5Q47.55-0.3 46.85-0.3ZM64.65-0.5L64.65-0.5Q62.15-0.5 62.15-3.05L62.15-3.05Q62.15-5.8 64.7-12.7L64.7-12.7Q63.45-11 62.95-11L62.95-11Q62.8-11 62.8-11.15L62.8-11.15Q62.8-11.2 64.09-12.9L64.09-12.9Q64.75-13.75 65.12-14.23 65.5-14.7 65.55-14.85L65.55-14.85Q65.8-15.55 66.25-16.65 66.7-17.75 67.3-19.15L67.3-19.15Q68.4-21.65 69.55-24.18 70.7-26.7 71.95-29.25L71.95-29.25Q72.34-30.1 72.97-31.3 73.59-32.5 74.45-34.05L74.45-34.05Q75-34.9 76.5-34.9L76.5-34.9Q77.4-34.9 77.4-34.45L77.4-34.45Q77.4-34.3 77.34-34.2L77.34-34.2 74.65-28.2 73.55-25.8Q73.2-25.6 72.65-25.05L72.65-25.05Q72.65-25.05 72.12-24 71.59-22.95 70.5-20.9L70.5-20.9Q63.45-7.2 63.45-3L63.45-3Q63.45-1.35 64.55-1.35L64.55-1.35Q65.8-1.35 67.5-2.75L67.5-2.75Q69.25-4.2 69.15-4.2L69.15-4.2Q69.34-4.2 69.34-4L69.34-4Q69.34-3.8 69.15-3.6L69.15-3.6Q66.95-0.5 64.65-0.5ZM72.79-0.5L72.79-0.5Q70.29-0.5 70.29-3.05L70.29-3.05Q70.29-5.8 72.84-12.7L72.84-12.7Q71.59-11 71.09-11L71.09-11Q70.94-11 70.94-11.15L70.94-11.15Q70.94-11.2 72.24-12.9L72.24-12.9Q72.89-13.75 73.27-14.23 73.64-14.7 73.69-14.85L73.69-14.85Q73.94-15.55 74.39-16.65 74.84-17.75 75.44-19.15L75.44-19.15Q76.54-21.65 77.69-24.18 78.84-26.7 80.09-29.25L80.09-29.25Q80.49-30.1 81.12-31.3 81.74-32.5 82.59-34.05L82.59-34.05Q83.14-34.9 84.64-34.9L84.64-34.9Q85.54-34.9 85.54-34.45L85.54-34.45Q85.54-34.3 85.49-34.2L85.49-34.2 82.79-28.2 81.69-25.8Q81.34-25.6 80.79-25.05L80.79-25.05Q80.79-25.05 80.27-24 79.74-22.95 78.64-20.9L78.64-20.9Q71.59-7.2 71.59-3L71.59-3Q71.59-1.35 72.69-1.35L72.69-1.35Q73.94-1.35 75.64-2.75L75.64-2.75Q77.39-4.2 77.29-4.2L77.29-4.2Q77.49-4.2 77.49-4L77.49-4Q77.49-3.8 77.29-3.6L77.29-3.6Q75.09-0.5 72.79-0.5ZM82.54 0.1L82.54 0.1Q80.19 0.1 78.29-1.85L78.29-1.85Q76.44-3.85 76.44-6.2L76.44-6.2Q76.44-7.75 77.24-7.75L77.24-7.75Q77.74-7.75 78.24-7L78.24-7Q79.74-10.5 82.49-14.9L82.49-14.9Q84.24-17.6 86.59-17.6L86.59-17.6Q87.09-17.6 87.77-17.25 88.44-16.9 88.44-16.4L88.44-16.4Q88.44-16.05 87.79-16.05L87.79-16.05Q87.74-16.05 87.64-16.05 87.54-16.05 87.39-16.1L87.39-16.1 86.99-16.1Q85.89-16.1 85.04-15.45 84.19-14.8 84.19-13.7L84.19-13.7Q84.19-13.3 84.34-12.85L84.34-12.85 85.54-8.85Q85.94-7.65 86.09-6.63 86.24-5.6 86.24-4.75L86.24-4.75Q87.59-4.95 88.54-5.75L88.54-5.75Q89.14-6.25 90.14-7.75L90.14-7.75Q90.29-7.95 90.44-7.95L90.44-7.95Q90.59-7.95 90.59-7.75L90.59-7.75Q90.59-7.7 90.49-7.4L90.49-7.4Q88.79-4.55 86.29-4.05L86.29-4.05Q86.14-2.3 85.24-1.15L85.24-1.15Q84.29 0.1 82.54 0.1ZM84.19-4.1L84.19-4.1Q84.24-4.3 84.24-4.45 84.24-4.6 84.24-4.8L84.24-4.8Q84.24-5.45 84.02-6.58 83.79-7.7 83.39-9.35L83.39-9.35Q82.64-12.5 82.84-13.55L82.84-13.55Q81.54-12.2 78.59-6.35L78.59-6.35Q79.54-5.85 80.22-5.48 80.89-5.1 81.29-4.9L81.29-4.9Q82.09-4.55 82.82-4.35 83.54-4.15 84.19-4.1ZM81.49-1.55L81.49-1.55Q83.49-1.55 84.14-3.5L84.14-3.5Q80.14-3.5 78.04-5.15L78.04-5.15Q78.14-4.05 79.24-2.75L79.24-2.75Q80.39-1.55 81.49-1.55ZM93.54 0.45L93.54 0.45Q89.99 0.45 89.99-4.15L89.99-4.15Q89.99-4.85 90.06-5.68 90.14-6.5 90.34-7.45L90.34-7.45Q90.14-7.6 89.94-7.88 89.74-8.15 89.54-8.55L89.54-8.55Q89.74-8.5 89.96-8.38 90.19-8.25 90.54-8.15L90.54-8.15Q91.09-10.65 93.54-13.1L93.54-13.1Q96.19-15.8 98.54-15.8L98.54-15.8Q99.09-15.8 99.09-15.65L99.09-15.65Q99.09-15.55 98.39-15.15L98.39-15.15Q96.54-14.15 94.89-12.05L94.89-12.05Q93.24-9.9 92.49-7.85L92.49-7.85 92.59-7.75Q94.99-7.75 97.59-10.05L97.59-10.05Q100.19-12.35 100.19-14.75L100.19-14.75Q100.19-15.5 99.79-16.1 99.39-16.7 98.69-16.7L98.69-16.7Q97.69-16.7 96.44-15.9L96.44-15.9Q95.19-15.15 95.04-15.15L95.04-15.15Q94.94-15.15 94.94-15.2L94.94-15.2Q94.94-15.8 96.69-16.5L96.69-16.5Q98.19-17.1 99.04-17.1L99.04-17.1Q100.19-17.1 100.96-16.45 101.74-15.8 101.74-14.65L101.74-14.65Q101.74-12 98.29-9.5L98.29-9.5Q95.19-7.3 92.29-7.05L92.29-7.05Q91.89-5.85 91.89-4.75L91.89-4.75Q91.89-0.6 94.89-0.6L94.89-0.6Q97.19-0.6 99.69-2.6L99.69-2.6Q101.79-4.25 103.19-6.6L103.19-6.6Q103.64-7.3 103.94-7.3L103.94-7.3Q103.99-7.3 103.99-7.2L103.99-7.2Q103.99-7 103.59-6.3L103.59-6.3Q102.04-3.85 99.24-1.8L99.24-1.8Q96.19 0.45 93.54 0.45ZM97.74 19.9L97.74 19.9Q94.94 19.9 91.89 17.6L91.89 17.6Q88.84 15.3 88.84 12.8L88.84 12.8Q88.84 12.6 88.99 12.6L88.99 12.6Q89.19 12.6 89.24 12.9L89.24 12.9Q91.34 18.15 96.84 18.15L96.84 18.15Q99.64 18.15 102.04 16.8L102.04 16.8Q106.69 14.2 109.29 8.65L109.29 8.65Q110.09 6.9 110.86 4.23 111.64 1.55 112.34-2.05L112.34-2.05Q112.64-3.65 113.09-6.05 113.54-8.45 114.39-11.6L114.39-11.6 115.24-14.7Q112.09-12.25 107.69-0.65L107.69-0.65Q107.69-0.55 107.49-0.55L107.49-0.55Q107.14-0.55 106.74-0.9 106.34-1.25 106.34-1.65L106.34-1.65Q106.34-1.65 106.74-2.7L106.74-2.7Q107.19-3.7 107.19-3.75L107.19-3.75Q108.14-6.55 108.14-11.95L108.14-11.95Q108.14-16.05 106.39-16.05L106.39-16.05Q105.44-16.05 104.04-14.75L104.04-14.75Q102.74-13.5 102.64-13.5L102.64-13.5Q102.49-13.5 102.49-13.7L102.49-13.7Q102.49-13.75 102.59-14.05L102.59-14.05Q103.29-15.15 104.84-16.25L104.84-16.25Q106.49-17.45 107.59-17.45L107.59-17.45Q109.69-17.45 109.69-13.4L109.69-13.4Q109.69-10.1 108.34-6.1L108.34-6.1Q112.49-13.75 115.39-15.25L115.39-15.25Q116.14-17.95 117.09-19.05L117.09-19.05Q118.34-20.6 120.79-20.6L120.79-20.6Q121.69-20.6 121.69-20.3L121.69-20.3Q121.69-20.15 121.44-20.05L121.44-20.05Q120.79-19.9 120.29-19.65L120.29-19.65Q117.99-18 116.39-11.1L116.39-11.1Q115.19-6.05 114.54-3.33 113.89-0.6 113.79-0.2L113.79-0.2Q111.94 6.5 109.59 10.8L109.59 10.8Q106.54 16.25 102.09 18.75L102.09 18.75Q100.04 19.9 97.74 19.9ZM124.63 0.45L124.63 0.45Q121.08 0.45 121.08-4.15L121.08-4.15Q121.08-4.85 121.16-5.68 121.23-6.5 121.43-7.45L121.43-7.45Q121.23-7.6 121.03-7.88 120.83-8.15 120.63-8.55L120.63-8.55Q120.83-8.5 121.06-8.38 121.28-8.25 121.63-8.15L121.63-8.15Q122.18-10.65 124.63-13.1L124.63-13.1Q127.28-15.8 129.63-15.8L129.63-15.8Q130.18-15.8 130.18-15.65L130.18-15.65Q130.18-15.55 129.48-15.15L129.48-15.15Q127.63-14.15 125.98-12.05L125.98-12.05Q124.33-9.9 123.58-7.85L123.58-7.85 123.68-7.75Q126.08-7.75 128.68-10.05L128.68-10.05Q131.28-12.35 131.28-14.75L131.28-14.75Q131.28-15.5 130.88-16.1 130.48-16.7 129.78-16.7L129.78-16.7Q128.78-16.7 127.53-15.9L127.53-15.9Q126.28-15.15 126.13-15.15L126.13-15.15Q126.03-15.15 126.03-15.2L126.03-15.2Q126.03-15.8 127.78-16.5L127.78-16.5Q129.28-17.1 130.13-17.1L130.13-17.1Q131.28-17.1 132.06-16.45 132.83-15.8 132.83-14.65L132.83-14.65Q132.83-12 129.38-9.5L129.38-9.5Q126.28-7.3 123.38-7.05L123.38-7.05Q122.98-5.85 122.98-4.75L122.98-4.75Q122.98-0.6 125.98-0.6L125.98-0.6Q128.28-0.6 130.78-2.6L130.78-2.6Q132.88-4.25 134.28-6.6L134.28-6.6Q134.73-7.3 135.03-7.3L135.03-7.3Q135.08-7.3 135.08-7.2L135.08-7.2Q135.08-7 134.68-6.3L134.68-6.3Q133.13-3.85 130.33-1.8L130.33-1.8Q127.28 0.45 124.63 0.45ZM149.88 5.35L149.88 5.35Q147.98 5.35 146.13 4.05L146.13 4.05Q144.13 2.65 144.13 0.75L144.13 0.75Q144.13-1.6 146.58-2.8L146.58-2.8Q148.43-3.75 151.08-3.75L151.08-3.75Q152.48-3.75 154.03-3.5 155.58-3.25 157.33-2.75L157.33-2.75Q160.98-7.15 163.73-13.85L163.73-13.85Q163.38-15 163.2-15.88 163.03-16.75 163.03-17.4L163.03-17.4Q163.03-19.2 163.73-19.2L163.73-19.2Q164.53-19.2 165.13-17.6L165.13-17.6Q166.93-21.15 168.73-29.85L168.73-29.85Q158.33-29.5 152.78-23.8L152.78-23.8Q150.78-21.8 150.78-19.25L150.78-19.25Q150.78-17.25 152.13-15.6L152.13-15.6Q153.33-14.1 155.33-13.3L155.33-13.3Q155.63-13.2 156.13-13.05 156.63-12.9 157.28-12.75L157.28-12.75Q157.58-12.7 157.58-12.55L157.58-12.55Q157.58-12.3 157.23-12.3L157.23-12.3 157.08-12.35Q153.98-12.6 151.28-14.9L151.28-14.9Q148.33-17.4 148.33-20.4L148.33-20.4Q148.33-22.65 150.18-24.5L150.18-24.5Q153.33-27.75 158.93-29.3L158.93-29.3Q163.58-30.65 168.93-30.65L168.93-30.65Q169.03-31.7 169.25-32.83 169.48-33.95 169.78-35.1L169.78-35.1Q169.98-35.05 169.98-33.95L169.98-33.95Q169.98-33.3 169.88-32.48 169.78-31.65 169.58-30.65L169.58-30.65Q171.48-30.6 173.3-30.43 175.13-30.25 176.83-29.85L176.83-29.85Q179.88-32.65 183.03-32.65L183.03-32.65Q184.88-32.65 186.13-31.35 187.38-30.05 187.38-28.2L187.38-28.2Q187.38-27.5 187.13-27.5L187.13-27.5Q186.93-27.5 186.78-28.9L186.78-28.9Q186.48-31.15 183.53-31.15L183.53-31.15Q181.53-31.15 179.18-29.25L179.18-29.25Q182.28-28.3 184.48-26.55L184.48-26.55Q187.23-24.4 187.23-21.6L187.23-21.6Q187.23-18.2 183.33-16.25L183.33-16.25Q180.33-14.7 176.53-14.5L176.53-14.5Q186.88-9.7 186.88-3.15L186.88-3.15Q186.88-0.05 184.28 2.05L184.28 2.05Q181.73 4.15 178.53 4.15L178.53 4.15Q173.73 4.15 170.03 2.95L170.03 2.95 162.13-0.3Q160.73 1.35 159.4 2.48 158.08 3.6 156.78 4.15L156.78 4.15Q154.23 5.35 149.88 5.35ZM160.63-1.65L160.63-1.65Q162.68-3.9 165.28-9.45L165.28-9.45Q166.48-12.05 167.68-14.63 168.88-17.2 170.13-19.8L170.13-19.8Q171.73-23 173.25-25.35 174.78-27.7 176.23-29.25L176.23-29.25Q173.03-29.85 169.83-29.85L169.83-29.85 169.43-29.85Q168.38-25 165.98-18L165.98-18Q166.68-18.4 167.03-18.4L167.03-18.4Q167.43-18.4 167.43-17.9L167.43-17.9Q167.43-16.5 164.18-13.5L164.18-13.5Q162.78-10.3 161.2-7.58 159.63-4.85 157.78-2.6L157.78-2.6Q158.48-2.4 159.2-2.15 159.93-1.9 160.63-1.65ZM178.18 3.1L178.18 3.1Q184.93 3.1 184.93-1.5L184.93-1.5Q184.93-7.65 176.58-11.7L176.58-11.7Q176.08-11.9 175.33-12.23 174.58-12.55 173.58-13L173.58-13Q173.43-13.1 173.43-13.5L173.43-13.5Q173.43-14.9 174.88-15.2L174.88-15.2 175.88-15.2Q176.33-15.25 176.78-15.3 177.23-15.35 177.63-15.4L177.63-15.4Q180.58-15.95 182.43-17.4L182.43-17.4Q184.73-19.1 184.73-21.8L184.73-21.8Q184.73-24.25 182.78-26.2L182.78-26.2Q181.08-27.8 178.53-28.65L178.53-28.65Q175.53-25.9 172.78-20.3L172.78-20.3 168.13-10.1Q165.38-4.15 162.73-1L162.73-1 170.28 1.7Q174.53 3.1 178.18 3.1ZM150.23 4.2L150.23 4.2Q152.83 4.2 155.78 2.65L155.78 2.65Q158.83 1.1 160.18-0.95L160.18-0.95Q159.53-1.3 158.85-1.6 158.18-1.9 157.38-2.15L157.38-2.15Q154.43 1.4 152.28 1.4L152.28 1.4Q151.23 1.4 151.23 0.8L151.23 0.8Q151.23 0.55 151.53 0.55L151.53 0.55Q151.63 0.55 151.93 0.63 152.23 0.7 152.38 0.7L152.38 0.7Q154.28 0.7 156.93-2.25L156.93-2.25Q153.73-3.3 150.83-3.3L150.83-3.3Q148.78-3.3 147.13-2.6L147.13-2.6Q145.03-1.7 145.03 0.2L145.03 0.2Q145.03 2 146.78 3.15L146.78 3.15Q148.38 4.2 150.23 4.2ZM190.93-0.3L190.93-0.3Q190.38-0.3 190.38-0.6L190.38-0.6Q190.38-2.4 191.83-5.2L191.83-5.2Q193.63-8.7 193.93-9.75L193.93-9.75Q194.43-11.45 194.43-13.95L194.43-13.95Q194.28-13.45 193.78-12.5 193.28-11.55 192.43-10.1L192.43-10.1Q191.63-8.7 191-7.78 190.38-6.85 189.98-6.3L189.98-6.3Q189.98-6.25 189.88-6.25L189.88-6.25Q189.63-6.25 189.63-6.45L189.63-6.45 191.13-9Q192.38-11.1 193.13-12.88 193.88-14.65 194.23-16.05L194.23-16.05Q194.53-17.35 195.43-17.35L195.43-17.35Q196.33-17.35 196.33-15.25L196.33-15.25Q196.33-14.15 196.03-12.5 195.73-10.85 195.03-8.7L195.03-8.7 192.93-2.15Q194.78-3.55 196.5-5.35 198.23-7.15 199.63-9.5L199.63-9.5 199.93-10Q200.48-13.65 201.28-14.6L201.28-14.6Q201.48-14.95 202.18-14.95L202.18-14.95Q203.23-14.95 203.23-14.4L203.23-14.4Q203.23-12.9 202.28-11.65L202.28-11.65Q201.18-7.9 201.18-4.35L201.18-4.35Q201.18-1.95 202.68-1.95L202.68-1.95Q203.43-1.95 204.43-2.8L204.43-2.8Q205.43-3.65 205.38-3.65L205.38-3.65Q205.53-3.65 205.53-3.35L205.53-3.35 205.53-3.25Q203.83-0.85 201.73-0.85L201.73-0.85Q199.58-0.85 199.58-4.55L199.58-4.55Q199.58-5.45 199.65-6.5 199.73-7.55 199.83-8.8L199.83-8.8Q197.93-5.2 193.58-1.8L193.58-1.8Q193.33-1.6 192.88-1.25 192.43-0.9 191.88-0.5L191.88-0.5Q191.63-0.3 190.93-0.3ZM216.72 0.35L216.72 0.35Q213.82 0.35 213.82-3.85L213.82-3.85Q213.82-5.9 214.72-9.95L214.72-9.95Q212.62-5.85 211.37-4.2L211.37-4.2Q208.72-0.5 206.42-0.5L206.42-0.5Q204.07-0.5 204.07-3.6L204.07-3.6Q204.07-8.35 209.12-13.7L209.12-13.7Q214.17-19.05 219.02-19.6L219.02-19.6Q220.12-22.25 221.17-24.65 222.22-27.05 223.17-29.2L223.17-29.2Q223.57-30.05 224.1-31.15 224.62-32.25 225.27-33.6L225.27-33.6Q226.12-34.75 227.97-34.75L227.97-34.75Q228.67-34.75 228.67-34.4L228.67-34.4Q228.67-34.4 228.57-34.2L228.57-34.2Q228.17-33.4 227.5-32.15 226.82-30.9 225.97-29.3L225.97-29.3Q224.62-26.7 223.35-24.18 222.07-21.65 220.92-19.3L220.92-19.3Q221.52-19.15 221.52-18.4L221.52-18.4Q221.52-17.4 220.27-15.4L220.27-15.4Q219.07-13.4 218.27-12.8L218.27-12.8Q217.77-11.85 217.37-10.6 216.97-9.35 216.57-7.9L216.57-7.9Q216.22-6.45 216.05-5.2 215.87-3.95 215.87-2.95L215.87-2.95Q215.87-0.5 217.17-0.5L217.17-0.5Q218.67-0.5 220.82-3.2L220.82-3.2Q221.52-4.05 223.52-7.25L223.52-7.25Q223.77-7.55 223.87-7.55L223.87-7.55Q224.02-7.55 224.02-7.4L224.02-7.4Q224.02-7.4 223.92-7.1L223.92-7.1Q220.07 0.35 216.72 0.35ZM206.67-2.35L206.67-2.35Q210.32-2.35 213.82-10.5L213.82-10.5Q212.87-10.2 212.27-10.2L212.27-10.2Q212.07-10.2 212.07-10.4L212.07-10.4Q212.07-10.7 212.77-10.93 213.47-11.15 214.42-11.8L214.42-11.8Q214.62-12.3 214.85-12.93 215.07-13.55 215.27-14.3L215.27-14.3Q215.42-14.7 215.62-14.7L215.62-14.7Q215.97-14.7 215.97-14.25L215.97-14.25Q215.97-13.8 215.52-12.6L215.52-12.6 216.42-13.25 218.52-18.45Q214.82-17.65 210.12-13L210.12-13Q205.32-8.15 205.32-4.55L205.32-4.55Q205.32-2.35 206.67-2.35ZM235.27 0.35L235.27 0.35Q232.37 0.35 232.37-3.85L232.37-3.85Q232.37-5.9 233.27-9.95L233.27-9.95Q231.17-5.85 229.92-4.2L229.92-4.2Q227.27-0.5 224.97-0.5L224.97-0.5Q222.62-0.5 222.62-3.6L222.62-3.6Q222.62-8.35 227.67-13.7L227.67-13.7Q232.72-19.05 237.57-19.6L237.57-19.6Q238.67-22.25 239.72-24.65 240.77-27.05 241.72-29.2L241.72-29.2Q242.12-30.05 242.65-31.15 243.17-32.25 243.82-33.6L243.82-33.6Q244.67-34.75 246.52-34.75L246.52-34.75Q247.22-34.75 247.22-34.4L247.22-34.4Q247.22-34.4 247.12-34.2L247.12-34.2Q246.72-33.4 246.05-32.15 245.37-30.9 244.52-29.3L244.52-29.3Q243.17-26.7 241.9-24.18 240.62-21.65 239.47-19.3L239.47-19.3Q240.07-19.15 240.07-18.4L240.07-18.4Q240.07-17.4 238.82-15.4L238.82-15.4Q237.62-13.4 236.82-12.8L236.82-12.8Q236.32-11.85 235.92-10.6 235.52-9.35 235.12-7.9L235.12-7.9Q234.77-6.45 234.6-5.2 234.42-3.95 234.42-2.95L234.42-2.95Q234.42-0.5 235.72-0.5L235.72-0.5Q237.22-0.5 239.37-3.2L239.37-3.2Q240.07-4.05 242.07-7.25L242.07-7.25Q242.32-7.55 242.42-7.55L242.42-7.55Q242.57-7.55 242.57-7.4L242.57-7.4Q242.57-7.4 242.47-7.1L242.47-7.1Q238.62 0.35 235.27 0.35ZM225.22-2.35L225.22-2.35Q228.87-2.35 232.37-10.5L232.37-10.5Q231.42-10.2 230.82-10.2L230.82-10.2Q230.62-10.2 230.62-10.4L230.62-10.4Q230.62-10.7 231.32-10.93 232.02-11.15 232.97-11.8L232.97-11.8Q233.17-12.3 233.4-12.93 233.62-13.55 233.82-14.3L233.82-14.3Q233.97-14.7 234.17-14.7L234.17-14.7Q234.52-14.7 234.52-14.25L234.52-14.25Q234.52-13.8 234.07-12.6L234.07-12.6 234.97-13.25 237.07-18.45Q233.37-17.65 228.67-13L228.67-13Q223.87-8.15 223.87-4.55L223.87-4.55Q223.87-2.35 225.22-2.35ZM236.77 19.9L236.77 19.9Q233.97 19.9 230.92 17.6L230.92 17.6Q227.87 15.3 227.87 12.8L227.87 12.8Q227.87 12.6 228.02 12.6L228.02 12.6Q228.22 12.6 228.27 12.9L228.27 12.9Q230.37 18.15 235.87 18.15L235.87 18.15Q238.67 18.15 241.07 16.8L241.07 16.8Q245.72 14.2 248.32 8.65L248.32 8.65Q249.12 6.9 249.89 4.23 250.67 1.55 251.37-2.05L251.37-2.05Q251.67-3.65 252.12-6.05 252.57-8.45 253.42-11.6L253.42-11.6 254.27-14.7Q251.12-12.25 246.72-0.65L246.72-0.65Q246.72-0.55 246.52-0.55L246.52-0.55Q246.17-0.55 245.77-0.9 245.37-1.25 245.37-1.65L245.37-1.65Q245.37-1.65 245.77-2.7L245.77-2.7Q246.22-3.7 246.22-3.75L246.22-3.75Q247.17-6.55 247.17-11.95L247.17-11.95Q247.17-16.05 245.42-16.05L245.42-16.05Q244.47-16.05 243.07-14.75L243.07-14.75Q241.77-13.5 241.67-13.5L241.67-13.5Q241.52-13.5 241.52-13.7L241.52-13.7Q241.52-13.75 241.62-14.05L241.62-14.05Q242.32-15.15 243.87-16.25L243.87-16.25Q245.52-17.45 246.62-17.45L246.62-17.45Q248.72-17.45 248.72-13.4L248.72-13.4Q248.72-10.1 247.37-6.1L247.37-6.1Q251.52-13.75 254.42-15.25L254.42-15.25Q255.17-17.95 256.12-19.05L256.12-19.05Q257.37-20.6 259.82-20.6L259.82-20.6Q260.72-20.6 260.72-20.3L260.72-20.3Q260.72-20.15 260.47-20.05L260.47-20.05Q259.82-19.9 259.32-19.65L259.32-19.65Q257.02-18 255.42-11.1L255.42-11.1Q254.22-6.05 253.57-3.33 252.92-0.6 252.82-0.2L252.82-0.2Q250.97 6.5 248.62 10.8L248.62 10.8Q245.57 16.25 241.12 18.75L241.12 18.75Q239.07 19.9 236.77 19.9Z" opacity="1" transform="matrix(1,0,0,1,0,0)" fill="#fffff5" class="wordmark-text-0" data-fill-palette-color="quaternary" id="text-0"></path></svg></g></svg></g></svg></g></svg></g><g transform="matrix(1,0,0,1,71.26912911542092,0)"><svg viewBox="0 0 70.62018299631525 62.1487269569475" height="62.1487269569475" width="70.62018299631525"><g><svg xmlns:dc="http://purl.org/dc/elements/1.1/" xmlns:cc="http://creativecommons.org/ns#" xmlns:rdf="http://www.w3.org/1999/02/22-rdf-syntax-ns#" xmlns:svg="http://www.w3.org/2000/svg" xmlns="http://www.w3.org/2000/svg" xmlns:sodipodi="http://sodipodi.sourceforge.net/DTD/sodipodi-0.dtd" xmlns:inkscape="http://www.inkscape.org/namespaces/inkscape" version="1.0" x="0" y="0" viewBox="4 5.43899204332895 24 21.12100795667105" enable-background="new 0 0 32 32" xml:space="preserve" height="62.1487269569475" width="70.62018299631525" class="icon-icon-0" data-fill-palette-color="quaternary" id="icon-0"><path d="M14.56 5.44C8.74 5.44 4 10.18 4 16S8.74 26.56 14.56 26.56C20.44 26.56 25.18 21.82 25.18 16 25.18 15.657 25.16 15.317 25.129 14.982L28 14.2 26.979 12.7 27.099 10.84 24.218 11.628A10.61 10.61 0 0 0 14.56 5.439M14.56 7.48A8.59 8.59 0 0 1 22.687 13.285L20.713 13.818A6.53 6.53 0 0 0 14.559 9.52C11.019 9.52 8.08 12.4 8.08 16S11.02 22.48 14.56 22.48C18.163 22.48 21.1 19.6 21.1 16 21.1 15.583 21.056 15.176 20.98 14.781L22.955 14.246C23.075 14.813 23.141 15.4 23.141 16 23.14 20.74 19.3 24.52 14.56 24.52 9.88 24.52 6.039 20.74 6.039 16 6.04 11.32 9.881 7.48 14.561 7.48M14.56 11.56A4.42 4.42 0 0 1 18.685 14.37L16.686 14.91A2.4 2.4 0 0 0 14.56 13.6C13.24 13.6 12.22 14.68 12.22 16S13.24 18.4 14.56 18.4 16.96 17.32 16.96 16C16.96 15.957 16.95 15.917 16.949 15.875L18.934 15.338C18.966 15.556 19 15.773 19 16A4.43 4.43 0 0 1 14.56 20.44C12.163 20.44 10.122 18.46 10.122 16S12.161 11.56 14.561 11.56M14.56 15.343A0.8 0.8 0 0 1 14.872 15.402L14.67 15.457A0.5 0.5 0 1 0 14.932 16.422L15.113 16.373C15.003 16.552 14.813 16.658 14.561 16.658 14.297 16.658 13.96 16.377 13.96 16 13.96 15.695 14.177 15.342 14.56 15.342" fill="#fffff5" data-fill-palette-color="quaternary"></path><path d="M14.8 15.939L25.42 13.061" clip-rule="evenodd" fill="#fffff5" fill-rule="evenodd" data-fill-palette-color="quaternary"></path></svg></g></svg></g><g></g></svg></g></svg></g></svg></g></svg></g><defs></defs></svg><rect width="342.85155851775386" height="342.85155851775386" fill="none" stroke="none" visibility="hidden"></rect></g></svg></g></svg>