<svg xmlns="http://www.w3.org/2000/svg" version="1.1" xmlns:xlink="http://www.w3.org/1999/xlink" xmlns:svgjs="http://svgjs.dev/svgjs" width="1500" height="1500" viewBox="0 0 1500 1500"><rect width="1500" height="1500" fill="#ffffff"></rect><g transform="matrix(0.6666666666666666,0,0,0.6666666666666666,249.39393939393938,554.6281503383956)"><svg viewBox="0 0 396 154" data-background-color="#ffffff" preserveAspectRatio="xMidYMid meet" height="583" width="1500" xmlns="http://www.w3.org/2000/svg" xmlns:xlink="http://www.w3.org/1999/xlink"><g id="tight-bounds" transform="matrix(1,0,0,1,0.2400000000000091,0.41148760176778865)"><svg viewBox="0 0 395.52 153.17702479646442" height="153.17702479646442" width="395.52"><g><svg viewBox="0 0 638.2977090064015 247.2" height="153.17702479646442" width="395.52"><g transform="matrix(1,0,0,1,260.78422695014547,0)"><svg viewBox="0 0 377.51348205625607 247.2" height="247.2" width="377.51348205625607"><g id="textblocktransform"><svg viewBox="0 0 377.51348205625607 247.2" height="247.2" width="377.51348205625607" id="textblock"><g><svg viewBox="0 0 377.51348205625607 247.2" height="247.2" width="377.51348205625607"><g transform="matrix(1,0,0,1,0,0)"><svg width="377.51348205625607" viewBox="41.63 -37.699999999999996 157.45 100.1" height="247.2" data-palette-color="#df3931"><svg></svg><svg></svg><g class="wordmark-text-0" data-fill-palette-color="primary" id="text-0"><path transform="translate(38.63,0)" d="M17.05-18.3c2.233 0.5 3.993 1.39 5.28 2.67 1.28 1.287 1.92 3.197 1.92 5.73v0c0 3.333-1.123 5.817-3.37 7.45-2.253 1.633-5.313 2.45-9.18 2.45v0h-8.7v-34.55h7.55c3.967 0 7.033 0.75 9.2 2.25 2.167 1.5 3.25 3.683 3.25 6.55v0c0 1.933-0.54 3.533-1.62 4.8-1.087 1.267-2.53 2.15-4.33 2.65zM11.2-29.85h-1.85v9.55h2.15c3.367 0 5.05-1.633 5.05-4.9v0c0-1.633-0.423-2.817-1.27-3.55-0.853-0.733-2.213-1.1-4.08-1.1zM11.75-4.8c1.933 0 3.4-0.41 4.4-1.23 1-0.813 1.5-2.187 1.5-4.12v0c0-1.933-0.467-3.36-1.4-4.28-0.933-0.913-2.383-1.37-4.35-1.37v0h-2.55v11zM46.4-26.45v26.45h-5.35l-0.3-3.35c-0.833 1.367-1.767 2.39-2.8 3.07-1.033 0.687-2.233 1.03-3.6 1.03v0c-1.933 0-3.457-0.683-4.57-2.05-1.12-1.367-1.68-3.15-1.68-5.35v0-19.8h6.15v19.45c0 2.067 0.7 3.1 2.1 3.1v0c0.8 0 1.517-0.31 2.15-0.93 0.633-0.613 1.217-1.487 1.75-2.62v0-19zM57.7 0.75c-1.8 0-3.227-0.56-4.28-1.68-1.047-1.113-1.57-2.603-1.57-4.47v0-31.65l6.15-0.65v32.05c0 0.433 0.1 0.783 0.3 1.05 0.2 0.267 0.5 0.4 0.9 0.4v0c0.233 0 0.46-0.033 0.68-0.1 0.213-0.067 0.353-0.1 0.42-0.1v0l1.2 4.2c-1.133 0.633-2.4 0.95-3.8 0.95zM70.15 0.75c-1.8 0-3.223-0.56-4.27-1.68-1.053-1.113-1.58-2.603-1.58-4.47v0-31.65l6.15-0.65v32.05c0 0.433 0.1 0.783 0.3 1.05 0.2 0.267 0.5 0.4 0.9 0.4v0c0.233 0 0.46-0.033 0.68-0.1 0.213-0.067 0.353-0.1 0.42-0.1v0l1.2 4.2c-1.133 0.633-2.4 0.95-3.8 0.95zM84.35-27.15c3.133 0 5.783 1.033 7.95 3.1v0l-2.35 3.35c-0.933-0.667-1.817-1.167-2.65-1.5-0.833-0.333-1.683-0.5-2.55-0.5v0c-0.967 0-1.723 0.257-2.27 0.77-0.553 0.52-0.83 1.23-0.83 2.13v0c0 0.9 0.31 1.623 0.93 2.17 0.613 0.553 1.853 1.197 3.72 1.93v0c2.3 0.9 4 1.967 5.1 3.2 1.1 1.233 1.65 2.883 1.65 4.95v0c0 2.567-0.9 4.59-2.7 6.07-1.8 1.487-4.083 2.23-6.85 2.23v0c-1.8 0-3.457-0.327-4.97-0.98-1.52-0.647-2.847-1.553-3.98-2.72v0l3-3.3c1.867 1.633 3.767 2.45 5.7 2.45v0c1.1 0 1.967-0.29 2.6-0.87 0.633-0.587 0.95-1.397 0.95-2.43v0c0-0.767-0.133-1.39-0.4-1.87-0.267-0.487-0.733-0.94-1.4-1.36-0.667-0.413-1.667-0.87-3-1.37v0c-2.3-0.9-3.94-1.95-4.92-3.15-0.987-1.2-1.48-2.733-1.48-4.6v0c0-2.233 0.793-4.077 2.38-5.53 1.58-1.447 3.703-2.17 6.37-2.17zM115.75-13.85c0 0.3-0.05 1.15-0.15 2.55v0h-13.65c0.133 2.733 0.61 4.64 1.43 5.72 0.813 1.087 1.97 1.63 3.47 1.63v0c1.033 0 1.967-0.177 2.8-0.53 0.833-0.347 1.733-0.903 2.7-1.67v0l2.55 3.5c-2.333 2.267-5.133 3.4-8.4 3.4v0c-3.467 0-6.123-1.2-7.97-3.6-1.853-2.4-2.78-5.783-2.78-10.15v0c0-4.367 0.883-7.817 2.65-10.35 1.767-2.533 4.267-3.8 7.5-3.8v0c3.1 0 5.517 1.123 7.25 3.37 1.733 2.253 2.6 5.563 2.6 9.93zM109.75-15.3v-0.35c0-2.5-0.3-4.327-0.9-5.48-0.6-1.147-1.567-1.72-2.9-1.72v0c-1.233 0-2.173 0.557-2.82 1.67-0.653 1.12-1.047 3.08-1.18 5.88v0zM138.7-26.45l-7 26.55c-0.867 3.2-2.267 5.717-4.2 7.55-1.933 1.833-4.517 2.9-7.75 3.2v0l-0.7-4.35c2.1-0.433 3.677-1.127 4.73-2.08 1.047-0.947 1.87-2.42 2.47-4.42v0h-2.3l-6.7-26.45h6.25l4.4 22.35 4.7-22.35zM160.45-13.85c0 0.3-0.05 1.15-0.15 2.55v0h-13.65c0.133 2.733 0.61 4.64 1.43 5.72 0.813 1.087 1.97 1.63 3.47 1.63v0c1.033 0 1.967-0.177 2.8-0.53 0.833-0.347 1.733-0.903 2.7-1.67v0l2.55 3.5c-2.333 2.267-5.133 3.4-8.4 3.4v0c-3.467 0-6.123-1.2-7.97-3.6-1.853-2.4-2.78-5.783-2.78-10.15v0c0-4.367 0.883-7.817 2.65-10.35 1.767-2.533 4.267-3.8 7.5-3.8v0c3.1 0 5.517 1.123 7.25 3.37 1.733 2.253 2.6 5.563 2.6 9.93zM154.45-15.3v-0.35c0-2.5-0.3-4.327-0.9-5.48-0.6-1.147-1.567-1.72-2.9-1.72v0c-1.233 0-2.173 0.557-2.82 1.67-0.653 1.12-1.047 3.08-1.18 5.88v0z" fill="#000000" fill-rule="nonzero" stroke="none" stroke-width="1" stroke-linecap="butt" stroke-linejoin="miter" stroke-miterlimit="10" stroke-dasharray="" stroke-dashoffset="0" font-family="none" font-weight="none" font-size="none" text-anchor="none" style="mix-blend-mode: normal" data-fill-palette-color="primary" opacity="1"></path><path transform="translate(58.68,51.55)" d="M17.05-18.3c2.233 0.5 3.993 1.39 5.28 2.67 1.28 1.287 1.92 3.197 1.92 5.73v0c0 3.333-1.123 5.817-3.37 7.45-2.253 1.633-5.313 2.45-9.18 2.45v0h-8.7v-34.55h7.55c3.967 0 7.033 0.75 9.2 2.25 2.167 1.5 3.25 3.683 3.25 6.55v0c0 1.933-0.54 3.533-1.62 4.8-1.087 1.267-2.53 2.15-4.33 2.65zM11.2-29.85h-1.85v9.55h2.15c3.367 0 5.05-1.633 5.05-4.9v0c0-1.633-0.423-2.817-1.27-3.55-0.853-0.733-2.213-1.1-4.08-1.1zM11.75-4.8c1.933 0 3.4-0.41 4.4-1.23 1-0.813 1.5-2.187 1.5-4.12v0c0-1.933-0.467-3.36-1.4-4.28-0.933-0.913-2.383-1.37-4.35-1.37v0h-2.55v11zM46.4-26.45v26.45h-5.35l-0.3-3.35c-0.833 1.367-1.767 2.39-2.8 3.07-1.033 0.687-2.233 1.03-3.6 1.03v0c-1.933 0-3.457-0.683-4.57-2.05-1.12-1.367-1.68-3.15-1.68-5.35v0-19.8h6.15v19.45c0 2.067 0.7 3.1 2.1 3.1v0c0.8 0 1.517-0.31 2.15-0.93 0.633-0.613 1.217-1.487 1.75-2.62v0-19zM65.05-37.7l6.15 0.65v37.05h-5.45l-0.3-3.05c-1.567 2.533-3.583 3.8-6.05 3.8v0c-2.733 0-4.823-1.227-6.27-3.68-1.453-2.447-2.18-5.87-2.18-10.27v0c0-2.8 0.377-5.26 1.13-7.38 0.747-2.113 1.787-3.737 3.12-4.87 1.333-1.133 2.867-1.7 4.6-1.7v0c2.133 0 3.883 0.883 5.25 2.65v0zM61.15-3.9c0.767 0 1.46-0.267 2.08-0.8 0.613-0.533 1.22-1.3 1.82-2.3v0-12.85c-1.067-1.8-2.283-2.7-3.65-2.7v0c-2.7 0-4.05 3.1-4.05 9.3v0c0 3.367 0.333 5.767 1 7.2 0.667 1.433 1.6 2.15 2.8 2.15zM89.85-37.7l6.15 0.65v37.05h-5.45l-0.3-3.05c-1.567 2.533-3.583 3.8-6.05 3.8v0c-2.733 0-4.827-1.227-6.28-3.68-1.447-2.447-2.17-5.87-2.17-10.27v0c0-2.8 0.377-5.26 1.13-7.38 0.747-2.113 1.787-3.737 3.12-4.87 1.333-1.133 2.867-1.7 4.6-1.7v0c2.133 0 3.883 0.883 5.25 2.65v0zM85.95-3.9c0.767 0 1.46-0.267 2.08-0.8 0.613-0.533 1.22-1.3 1.82-2.3v0-12.85c-1.067-1.8-2.283-2.7-3.65-2.7v0c-2.7 0-4.05 3.1-4.05 9.3v0c0 3.367 0.333 5.767 1 7.2 0.667 1.433 1.6 2.15 2.8 2.15zM120.35-26.45l-7 26.55c-0.867 3.2-2.267 5.717-4.2 7.55-1.933 1.833-4.517 2.9-7.75 3.2v0l-0.7-4.35c2.1-0.433 3.673-1.127 4.72-2.08 1.053-0.947 1.88-2.42 2.48-4.42v0h-2.3l-6.7-26.45h6.25l4.4 22.35 4.7-22.35z" fill="#000000" fill-rule="nonzero" stroke="none" stroke-width="1" stroke-linecap="butt" stroke-linejoin="miter" stroke-miterlimit="10" stroke-dasharray="" stroke-dashoffset="0" font-family="none" font-weight="none" font-size="none" text-anchor="none" style="mix-blend-mode: normal" data-fill-palette-color="secondary" opacity="1"></path></g></svg></g></svg></g></svg></g></svg></g><g transform="matrix(1,0,0,1,0,20.941634799892483)"><svg viewBox="0 0 233.30333191076625 205.31673040021502" height="205.31673040021502" width="233.30333191076625"><g><svg xmlns:dc="http://purl.org/dc/elements/1.1/" xmlns:cc="http://creativecommons.org/ns#" xmlns:rdf="http://www.w3.org/1999/02/22-rdf-syntax-ns#" xmlns:svg="http://www.w3.org/2000/svg" xmlns="http://www.w3.org/2000/svg" xmlns:sodipodi="http://sodipodi.sourceforge.net/DTD/sodipodi-0.dtd" xmlns:inkscape="http://www.inkscape.org/namespaces/inkscape" version="1.0" x="0" y="0" viewBox="4 5.43899204332895 24 21.12100795667105" enable-background="new 0 0 32 32" xml:space="preserve" height="205.31673040021502" width="233.30333191076625" class="icon-icon-0" data-fill-palette-color="accent" id="icon-0"><path d="M14.56 5.44C8.74 5.44 4 10.18 4 16S8.74 26.56 14.56 26.56C20.44 26.56 25.18 21.82 25.18 16 25.18 15.657 25.16 15.317 25.129 14.982L28 14.2 26.979 12.7 27.099 10.84 24.218 11.628A10.61 10.61 0 0 0 14.56 5.439M14.56 7.48A8.59 8.59 0 0 1 22.687 13.285L20.713 13.818A6.53 6.53 0 0 0 14.559 9.52C11.019 9.52 8.08 12.4 8.08 16S11.02 22.48 14.56 22.48C18.163 22.48 21.1 19.6 21.1 16 21.1 15.583 21.056 15.176 20.98 14.781L22.955 14.246C23.075 14.813 23.141 15.4 23.141 16 23.14 20.74 19.3 24.52 14.56 24.52 9.88 24.52 6.039 20.74 6.039 16 6.04 11.32 9.881 7.48 14.561 7.48M14.56 11.56A4.42 4.42 0 0 1 18.685 14.37L16.686 14.91A2.4 2.4 0 0 0 14.56 13.6C13.24 13.6 12.22 14.68 12.22 16S13.24 18.4 14.56 18.4 16.96 17.32 16.96 16C16.96 15.957 16.95 15.917 16.949 15.875L18.934 15.338C18.966 15.556 19 15.773 19 16A4.43 4.43 0 0 1 14.56 20.44C12.163 20.44 10.122 18.46 10.122 16S12.161 11.56 14.561 11.56M14.56 15.343A0.8 0.8 0 0 1 14.872 15.402L14.67 15.457A0.5 0.5 0 1 0 14.932 16.422L15.113 16.373C15.003 16.552 14.813 16.658 14.561 16.658 14.297 16.658 13.96 16.377 13.96 16 13.96 15.695 14.177 15.342 14.56 15.342" fill="#000000" data-fill-palette-color="accent"></path><path d="M14.8 15.939L25.42 13.061" clip-rule="evenodd" fill="#000000" fill-rule="evenodd" data-fill-palette-color="accent"></path></svg></g></svg></g></svg></g><defs></defs></svg><rect width="395.52" height="153.17702479646442" fill="none" stroke="none" visibility="hidden"></rect></g></svg></g></svg>