<svg width="1500" height="234" viewBox="0 0 1500 234" fill="none" xmlns="http://www.w3.org/2000/svg">
<g clip-path="url(#clip0_3_2)">
<g clip-path="url(#clip1_3_2)">
<g clip-path="url(#clip2_3_2)">
<g clip-path="url(#clip3_3_2)">
<g clip-path="url(#clip4_3_2)">
<g clip-path="url(#clip5_3_2)">
<g clip-path="url(#clip6_3_2)">
<path d="M332.841 162.487C326.028 162.487 319.584 162.321 313.508 161.989C307.41 161.657 302.574 161.27 299 160.827V45.3044C302.909 44.8618 307.767 44.4745 313.575 44.1425C319.382 43.8106 326.028 43.6446 333.511 43.6446C347.806 43.6446 358.807 46.3224 366.513 51.6781C374.22 57.0559 378.073 64.3369 378.073 73.5212C378.073 79.6072 376.431 84.7747 373.148 89.0238C369.842 93.2951 365.062 96.8139 358.807 99.5802C366.402 102.236 372.154 105.91 376.063 110.601C379.972 115.315 381.926 121.102 381.926 127.963C381.926 138.475 377.738 146.852 369.361 153.093C360.985 159.356 348.811 162.487 332.841 162.487ZM314.915 57.255V95.0987H333.343C342.166 95.0987 349.18 93.2729 354.385 89.6214C359.567 85.9698 362.158 81.267 362.158 75.513C362.158 69.3163 359.589 64.5803 354.452 61.305C349.314 58.0517 342.278 56.4251 333.343 56.4251C329.657 56.4251 326.307 56.5026 323.291 56.6575C320.276 56.8346 317.484 57.0337 314.915 57.255ZM334.013 149.375C343.953 149.375 351.715 147.604 357.299 144.063C362.884 140.522 365.676 135.377 365.676 128.627C365.676 121.988 362.94 116.787 357.467 113.025C351.994 109.262 344.177 107.381 334.013 107.381H314.915V148.379C320.834 149.043 327.2 149.375 334.013 149.375ZM431.347 163.151C426.321 163.151 421.574 162.1 417.107 159.997C412.639 157.895 409.01 154.487 406.217 149.773C403.425 145.081 402.029 138.807 402.029 130.951V74.849H417.107V128.959C417.107 135.709 418.559 140.876 421.462 144.462C424.366 148.069 428.61 149.872 434.195 149.872C438.774 149.872 443.207 148.954 447.496 147.117C451.807 145.302 455.638 142.846 458.989 139.748V74.849H474.066V138.752C474.066 143.51 475.094 146.63 477.148 148.113C479.226 149.618 481.493 150.37 483.95 150.37L480.767 161.989C470.38 161.989 463.959 157.895 461.501 149.707C457.592 153.69 453.069 156.921 447.932 159.4C442.794 161.901 437.266 163.151 431.347 163.151ZM530.523 163.151C525.385 163.151 520.75 162.177 516.618 160.23C512.486 158.304 509.213 155.184 506.801 150.868C504.411 146.553 503.216 140.965 503.216 134.104V38.3332H518.293V132.61C518.293 138.586 519.544 143.012 522.046 145.889C524.57 148.766 528.066 150.204 532.533 150.204C534.655 150.204 536.744 149.95 538.799 149.441C540.876 148.954 542.641 148.379 544.092 147.715L547.778 159.831C545.768 160.717 543.277 161.491 540.306 162.155C537.358 162.819 534.097 163.151 530.523 163.151ZM588.454 163.151C583.316 163.151 578.681 162.177 574.549 160.23C570.417 158.304 567.155 155.184 564.765 150.868C562.353 146.553 561.147 140.965 561.147 134.104V38.3332H576.224V132.61C576.224 138.586 577.486 143.012 580.01 145.889C582.512 148.766 585.997 150.204 590.464 150.204C592.586 150.204 594.686 149.95 596.763 149.441C598.818 148.954 600.571 148.379 602.023 147.715L605.709 159.831C603.699 160.717 601.219 161.491 598.271 162.155C595.3 162.819 592.028 163.151 588.454 163.151ZM643.403 163.151C636.813 163.151 630.872 162.321 625.578 160.661C620.261 159.001 615.872 156.844 612.41 154.188L618.776 141.739C621.68 144.174 625.343 146.188 629.766 147.781C634.166 149.397 638.879 150.204 643.905 150.204C650.16 150.204 654.884 149.175 658.078 147.117C661.25 145.081 662.836 142.459 662.836 139.25C662.836 136.926 662.255 134.879 661.093 133.108C659.91 131.338 657.754 129.59 654.627 127.863C651.5 126.159 646.977 124.311 641.057 122.32C632.904 119.553 626.795 116.256 622.73 112.427C618.642 108.621 616.598 103.342 616.598 96.5926C616.598 89.9533 619.536 84.3321 625.41 79.7289C631.262 75.1478 639.382 72.8573 649.769 72.8573C655.353 72.8573 660.323 73.4327 664.679 74.5835C669.034 75.7564 672.943 77.2281 676.405 78.9986L672.217 91.2812C669.202 89.5107 665.773 88.0722 661.931 86.9657C658.067 85.8591 653.789 85.3058 649.099 85.3058C643.291 85.3058 638.879 86.4677 635.864 88.7915C632.848 91.1152 631.341 93.6602 631.341 96.4266C631.341 99.0823 632.513 101.351 634.859 103.232C637.204 105.113 641.783 107.16 648.596 109.373C659.653 113.025 667.359 117.064 671.715 121.49C676.07 125.916 678.248 131.449 678.248 138.088C678.248 145.834 675.099 151.942 668.8 156.412C662.478 160.905 654.013 163.151 643.403 163.151ZM733.197 163.151C720.689 163.151 710.771 159.19 703.444 151.267C696.14 143.366 692.488 132.279 692.488 118.004C692.488 109.373 694.13 101.649 697.413 94.8332C700.719 88.039 705.332 82.6723 711.251 78.733C717.17 74.8158 724.039 72.8573 731.857 72.8573C740.233 72.8573 747.18 74.6499 752.697 78.2351C758.237 81.8424 762.403 86.689 765.195 92.775C767.987 98.861 769.383 105.556 769.383 112.859C769.383 116.732 769.216 120.494 768.881 124.145H707.901C708.906 132.223 711.754 138.53 716.444 143.067C721.135 147.604 727.334 149.872 735.04 149.872C740.066 149.872 744.589 149.341 748.61 148.279C752.63 147.239 756.483 145.889 760.169 144.229L763.687 157.01C759.667 158.78 755.143 160.252 750.117 161.425C745.092 162.576 739.452 163.151 733.197 163.151ZM707.733 112.029H755.478C755.478 103.619 753.356 97.1458 749.112 92.609C744.868 88.0722 739.005 85.8038 731.522 85.8038C725.044 85.8038 719.683 88.039 715.439 92.5094C711.195 97.002 708.627 103.508 707.733 112.029ZM791.664 199.667C788.314 199.667 785.376 199.335 782.852 198.671C780.351 198.007 778.374 197.232 776.922 196.347L780.272 183.899C781.613 184.673 783.288 185.337 785.298 185.89C787.309 186.444 789.542 186.72 791.999 186.72C796.69 186.72 800.878 185.226 804.564 182.239C808.249 179.251 811.767 173.386 815.118 164.645L818.971 154.686H810.93L776.922 78.8326L790.324 72.8573L822.824 144.727L848.121 73.5212L862.026 78.8326L830.028 165.475C826.789 174.327 823.271 181.243 819.474 186.222C815.676 191.202 811.488 194.687 806.909 196.679C802.33 198.671 797.248 199.667 791.664 199.667ZM911.915 163.151C899.407 163.151 889.5 159.19 882.196 151.267C874.869 143.366 871.206 132.279 871.206 118.004C871.206 109.373 872.859 101.649 876.165 94.8332C879.448 88.039 884.05 82.6723 889.969 78.733C895.889 74.8158 902.757 72.8573 910.575 72.8573C918.951 72.8573 925.909 74.6499 931.449 78.2351C936.966 81.8424 941.121 86.689 943.913 92.775C946.705 98.861 948.101 105.556 948.101 112.859C948.101 116.732 947.934 120.494 947.599 124.145H886.619C887.624 132.223 890.472 138.53 895.163 143.067C899.853 147.604 906.052 149.872 913.758 149.872C918.784 149.872 923.307 149.341 927.328 148.279C931.348 147.239 935.202 145.889 938.887 144.229L942.405 157.01C938.385 158.78 933.861 160.252 928.836 161.425C923.81 162.576 918.17 163.151 911.915 163.151ZM886.451 112.029H934.196C934.196 103.619 932.074 97.1458 927.83 92.609C923.586 88.0722 917.723 85.8038 910.24 85.8038C903.762 85.8038 898.401 88.039 894.157 92.5094C889.913 97.002 887.345 103.508 886.451 112.029Z" fill="black"/>
<path d="M1047.28 162.487C1040.46 162.487 1034.01 162.321 1027.91 161.989C1021.84 161.657 1017.01 161.27 1013.44 160.827V45.3044C1017.35 44.8618 1022.2 44.4745 1028.01 44.1425C1033.82 43.8106 1040.46 43.6446 1047.95 43.6446C1062.24 43.6446 1073.24 46.3224 1080.95 51.6781C1088.66 57.0559 1092.51 64.3369 1092.51 73.5212C1092.51 79.6072 1090.86 84.7747 1087.55 89.0238C1084.27 93.2951 1079.5 96.8139 1073.24 99.5802C1080.84 102.236 1086.59 105.91 1090.5 110.601C1094.41 115.315 1096.36 121.102 1096.36 127.963C1096.36 138.475 1092.17 146.852 1083.8 153.093C1075.42 159.356 1063.25 162.487 1047.28 162.487ZM1029.35 57.255V95.0987H1047.78C1056.6 95.0987 1063.61 93.2729 1068.79 89.6214C1073.99 85.9698 1076.59 81.267 1076.59 75.513C1076.59 69.3163 1074.03 64.5803 1068.89 61.305C1063.75 58.0517 1056.71 56.4251 1047.78 56.4251C1044.09 56.4251 1040.74 56.5026 1037.73 56.6575C1034.71 56.8346 1031.92 57.0337 1029.35 57.255ZM1048.45 149.375C1058.39 149.375 1066.15 147.604 1071.74 144.063C1077.32 140.522 1080.11 135.377 1080.11 128.627C1080.11 121.988 1077.38 116.787 1071.9 113.025C1066.43 109.262 1058.61 107.381 1048.45 107.381H1029.35V148.379C1035.27 149.043 1041.64 149.375 1048.45 149.375ZM1145.78 163.151C1140.76 163.151 1136.01 162.1 1131.54 159.997C1127.08 157.895 1123.45 154.487 1120.65 149.773C1117.86 145.081 1116.47 138.807 1116.47 130.951V74.849H1131.54V128.959C1131.54 135.709 1133 140.876 1135.9 144.462C1138.8 148.069 1143.05 149.872 1148.63 149.872C1153.21 149.872 1157.64 148.954 1161.93 147.117C1166.24 145.302 1170.07 142.846 1173.43 139.748V74.849H1188.5V138.752C1188.5 143.51 1189.53 146.63 1191.59 148.113C1193.64 149.618 1195.91 150.37 1198.39 150.37L1195.2 161.989C1184.8 161.989 1178.37 157.895 1175.94 149.707C1172.03 153.69 1167.51 156.921 1162.37 159.4C1157.23 161.901 1151.7 163.151 1145.78 163.151ZM1251.46 163.151C1244.31 163.151 1237.78 161.325 1231.86 157.674C1225.94 154.022 1221.25 148.843 1217.79 142.138C1214.32 135.454 1212.59 127.576 1212.59 118.502C1212.59 109.76 1214.36 101.959 1217.89 95.0987C1221.39 88.2382 1226.08 82.8161 1231.96 78.8326C1237.81 74.849 1244.26 72.8573 1251.29 72.8573C1257.1 72.8573 1262.1 74.0191 1266.3 76.3429C1270.48 78.6666 1273.74 81.0457 1276.09 83.4801V38.3332H1291.16V140.246C1291.16 144.45 1292.2 147.184 1294.28 148.445C1296.33 149.729 1298.59 150.37 1301.05 150.37L1297.86 161.989C1287.25 161.989 1280.78 157.784 1278.43 149.375C1275.97 152.805 1272.55 155.958 1268.15 158.835C1263.72 161.712 1258.16 163.151 1251.46 163.151ZM1254.81 149.872C1258.94 149.872 1262.88 148.899 1266.64 146.951C1270.37 145.026 1273.52 142.514 1276.09 139.416V96.5926C1273.96 93.9369 1271 91.4693 1267.21 89.1898C1263.41 86.9325 1259.22 85.8038 1254.64 85.8038C1249.28 85.8038 1244.59 87.2423 1240.57 90.1193C1236.55 92.9963 1233.46 96.836 1231.29 101.638C1229.1 106.463 1228.01 111.918 1228.01 118.004C1228.01 124.09 1229.18 129.534 1231.52 134.337C1233.87 139.161 1237.09 142.957 1241.17 145.723C1245.24 148.489 1249.78 149.872 1254.81 149.872ZM1354.15 163.151C1347.01 163.151 1340.47 161.325 1334.55 157.674C1328.63 154.022 1323.94 148.843 1320.48 142.138C1317.02 135.454 1315.29 127.576 1315.29 118.502C1315.29 109.76 1317.05 101.959 1320.58 95.0987C1324.09 88.2382 1328.78 82.8161 1334.65 78.8326C1340.51 74.849 1346.95 72.8573 1353.99 72.8573C1359.79 72.8573 1364.8 74.0191 1369 76.3429C1373.17 78.6666 1376.43 81.0457 1378.78 83.4801V38.3332H1393.86V140.246C1393.86 144.45 1394.9 147.184 1396.97 148.445C1399.03 149.729 1401.28 150.37 1403.74 150.37L1400.56 161.989C1389.95 161.989 1383.47 157.784 1381.13 149.375C1378.67 152.805 1375.24 155.958 1370.84 158.835C1366.42 161.712 1360.86 163.151 1354.15 163.151ZM1357.5 149.872C1361.64 149.872 1365.58 148.899 1369.33 146.951C1373.06 145.026 1376.21 142.514 1378.78 139.416V96.5926C1376.66 93.9369 1373.7 91.4693 1369.9 89.1898C1366.1 86.9325 1361.92 85.8038 1357.34 85.8038C1351.98 85.8038 1347.29 87.2423 1343.26 90.1193C1339.24 92.9963 1336.15 96.836 1333.98 101.638C1331.79 106.463 1330.7 111.918 1330.7 118.004C1330.7 124.09 1331.87 129.534 1334.22 134.337C1336.56 139.161 1339.78 142.957 1343.87 145.723C1347.93 148.489 1352.48 149.872 1357.5 149.872ZM1426.02 199.667C1422.67 199.667 1419.74 199.335 1417.21 198.671C1414.71 198.007 1412.73 197.232 1411.28 196.347L1414.63 183.899C1415.97 184.673 1417.65 185.337 1419.66 185.89C1421.67 186.444 1423.9 186.72 1426.36 186.72C1431.05 186.72 1435.24 185.226 1438.92 182.239C1442.61 179.251 1446.13 173.386 1449.48 164.645L1453.33 154.686H1445.29L1411.28 78.8326L1424.68 72.8573L1457.18 144.727L1482.48 73.5212L1496.38 78.8326L1464.39 165.475C1461.15 174.327 1457.63 181.243 1453.83 186.222C1450.04 191.202 1445.85 194.687 1441.27 196.679C1436.69 198.671 1431.61 199.667 1426.02 199.667Z" fill="#DF3931"/>
</g>
</g>
</g>
</g>
<g clip-path="url(#clip7_3_2)">
<g clip-path="url(#clip8_3_2)">
<path d="M116.596 6.48991C54.3283 6.48991 3.61548 57.2027 3.61548 119.47C3.61548 181.738 54.3283 232.451 116.596 232.451C179.505 232.451 230.218 181.738 230.218 119.47C230.218 115.801 230.004 112.163 229.672 108.579L260.389 100.212L249.465 84.1639L250.749 64.264L219.926 72.6947C210.86 52.9155 196.3 36.1585 177.981 24.4192C159.661 12.6798 138.354 6.46335 116.596 6.48991ZM116.596 28.3157C135.754 28.3134 154.435 34.2986 170.024 45.4342C185.614 56.5698 197.334 72.2992 203.546 90.4228L182.426 96.1253C177.514 82.6191 168.556 70.9565 156.773 62.7275C144.991 54.4984 130.957 50.1034 116.585 50.1414C78.711 50.1414 47.267 80.9542 47.267 119.47C47.267 157.986 78.7217 188.799 116.596 188.799C155.144 188.799 186.567 157.986 186.567 119.47C186.567 115.009 186.096 110.654 185.283 106.428L206.413 100.704C207.697 106.771 208.403 113.051 208.403 119.47C208.392 170.183 167.309 210.625 116.596 210.625C66.525 210.625 25.4305 170.183 25.4305 119.47C25.4412 69.3994 66.525 28.3157 116.596 28.3157ZM116.596 71.9672C126.125 71.9485 135.437 74.8089 143.312 80.1736C151.187 85.5383 157.258 93.1569 160.729 102.031L139.342 107.808C137.202 103.61 133.947 100.081 129.935 97.6094C125.923 95.1372 121.308 93.8169 116.596 93.7929C102.473 93.7929 91.5604 105.348 91.5604 119.47C91.5604 133.593 102.473 145.148 116.596 145.148C130.718 145.148 142.273 133.593 142.273 119.47C142.273 119.01 142.166 118.582 142.155 118.133L163.393 112.388C163.735 114.72 164.099 117.042 164.099 119.47C164.113 125.712 162.894 131.896 160.512 137.666C158.129 143.435 154.631 148.678 150.217 153.091C145.803 157.505 140.561 161.004 134.791 163.386C129.021 165.768 122.838 166.987 116.596 166.973C90.9506 166.973 69.1141 145.79 69.1141 119.47C69.1141 93.151 90.9185 71.9672 116.596 71.9672ZM116.596 112.441C117.74 112.426 118.875 112.641 119.934 113.072L117.773 113.661C117.088 113.838 116.445 114.15 115.881 114.578C115.317 115.006 114.844 115.541 114.489 116.153C114.134 116.765 113.903 117.442 113.811 118.143C113.719 118.845 113.767 119.558 113.953 120.241C114.138 120.924 114.457 121.563 114.891 122.122C115.326 122.68 115.866 123.147 116.482 123.496C117.098 123.844 117.777 124.067 118.48 124.151C119.183 124.235 119.895 124.178 120.576 123.985L122.512 123.461C121.335 125.376 119.303 126.51 116.607 126.51C113.782 126.51 110.176 123.504 110.176 119.47C110.176 116.207 112.498 112.43 116.596 112.43" fill="#DF3931"/>
<path fill-rule="evenodd" clip-rule="evenodd" d="M119.164 118.818L232.786 88.0262L119.164 118.818Z" fill="#DF3931"/>
</g>
</g>
</g>
</g>
</g>
<defs>
<clipPath id="clip0_3_2">
<rect width="1500" height="234" fill="white"/>
</clipPath>
<clipPath id="clip1_3_2">
<rect width="1492.77" height="225.971" fill="white" transform="translate(3.61548 6.47913)"/>
</clipPath>
<clipPath id="clip2_3_2">
<rect width="1492.77" height="225.971" fill="white" transform="translate(3.61548 6.47913)"/>
</clipPath>
<clipPath id="clip3_3_2">
<rect width="1197.38" height="162" fill="white" transform="translate(299 38)"/>
</clipPath>
<clipPath id="clip4_3_2">
<rect width="1197.38" height="162" fill="white" transform="translate(299 38)"/>
</clipPath>
<clipPath id="clip5_3_2">
<rect width="1197.38" height="162" fill="white" transform="translate(299 38)"/>
</clipPath>
<clipPath id="clip6_3_2">
<rect width="1197.38" height="162" fill="white" transform="translate(299 38)"/>
</clipPath>
<clipPath id="clip7_3_2">
<rect width="256.774" height="225.971" fill="white" transform="translate(3.61548 6.47913)"/>
</clipPath>
<clipPath id="clip8_3_2">
<rect width="256.774" height="225.971" fill="white" transform="translate(3.61548 6.47913)"/>
</clipPath>
</defs>
</svg>
